<?xml version="1.0" standalone="no"?>
<!DOCTYPE svg PUBLIC "-//W3C//DTD SVG 20010904//EN"
 "http://www.w3.org/TR/2001/REC-SVG-20010904/DTD/svg10.dtd">
<svg version="1.0" xmlns="http://www.w3.org/2000/svg"
 width="700.000000pt" height="700.000000pt" viewBox="0 0 700.000000 700.000000"
 preserveAspectRatio="xMidYMid meet">
<metadata>
Created by potrace 1.11, written by Peter Selinger 2001-2013
</metadata>
<g transform="translate(0.000000,700.000000) scale(0.100000,-0.100000)"
fill="#000000" stroke="none">
<path d="M2366 6993 l-2369 -3 6 -1937 c4 -1065 7 -2638 7 -3495 l0 -1559
3493 7 c1920 3 3493 8 3495 9 2 1 0 1574 -4 3494 l-7 3491 -1126 -2 c-619 -2
-2192 -4 -3495 -5z m2500 -2434 c224 -108 222 -403 -2 -506 l-53 -24 -1318 -2
-1318 -2 -45 23 c-180 94 -221 292 -90 435 92 100 -32 91 1335 98 1482 7 1431
8 1491 -22z m-1008 -1811 c-3 -579 -4 -594 -24 -639 -31 -66 -78 -114 -142
-146 -137 -67 -284 -10 -364 140 l-23 42 -3 598 -3 597 281 0 281 0 -3 -592z"/>
</g>
</svg>
