<?xml version="1.0" encoding="utf-8"?>
<!-- Generator: Adobe Illustrator 22.1.0, SVG Export Plug-In . SVG Version: 6.00 Build 0)  -->
<svg version="1.1" id="Layer_1" xmlns="http://www.w3.org/2000/svg" xmlns:xlink="http://www.w3.org/1999/xlink" x="0px" y="0px"
	 viewBox="0 0 453 80" style="enable-background:new 0 0 453 80;" xml:space="preserve">
<style type="text/css">
	.st0{fill:#FFFFFF;}
</style>
<title>Group 11</title>
<desc>Created with Sketch.</desc>
<g id="lander">
	<g id="titan-lander-_x28_c2_x29_-copy-7" transform="translate(-493.000000, -278.000000)">
		<g id="Group-11" transform="translate(493.000000, 278.000000)">
			<g id="Asset-11">
				<path id="Shape" class="st0" d="M38.2,38.3v32c-0.1,4.4,3.3,8.1,7.7,8.3c2.2,0.1,4.2-0.8,5.8-2.3s2.4-3.6,2.4-5.7V38.3
					c0-4.4-3.6-8-8-8C41.8,30.3,38.2,33.9,38.2,38.3z"/>
				<path id="Shape_1_" class="st0" d="M80.1,2.7H8c-4.4,0-8,3.6-8,8s3.6,8,8,8h72.1c4.4,0,8-3.6,8-8S84.6,2.7,80.1,2.7L80.1,2.7z"
					/>
				<path id="Shape_2_" class="st0" d="M190.7,38.3v32c-0.1,4.4,3.3,8.1,7.7,8.3c2.1,0.1,4.2-0.7,5.8-2.2c1.6-1.5,2.4-3.5,2.5-5.7
					V38.3c0-4.4-3.6-8-8-8C194.2,30.3,190.7,33.8,190.7,38.3z"/>
				<path id="Shape_3_" class="st0" d="M234.7,2.7h-72.1c-4.4,0-8,3.6-8,8s3.6,8,8,8h72.1c4.4,0,8-3.6,8-8S239.1,2.7,234.7,2.7z"/>
				<path id="Shape_4_" class="st0" d="M121.3,77.8c-4.4,0-8-3.6-8-8V8c0-2.9,1.5-5.5,4-6.9c2.5-1.4,5.5-1.4,8,0
					c2.5,1.4,4,4.1,4,6.9v61.9C129.3,74.3,125.7,77.8,121.3,77.8z"/>
				<path id="Shape_5_" class="st0" d="M436.2,8.3v21.9c-0.1,4.4,3.4,8.1,7.8,8.3c2.2,0.1,4.2-0.8,5.8-2.3c1.5-1.5,2.4-3.6,2.4-5.7
					V8.3c0-4.4-3.6-8-8-8C439.8,0.3,436.2,3.9,436.2,8.3z"/>
				<path id="Shape_6_" class="st0" d="M450.2,76.4c-3.1,3.1-8.1,3.1-11.3,0l-56.7-50.8v45.1c0.3,3-1.1,6-3.7,7.6s-5.9,1.6-8.5,0
					s-4-4.6-3.7-7.6V8.7c0-3.6,1.1-5.9,3.7-7.7s7-1.3,10.1,1.7l70,62.3C453.3,68.2,453.3,73.3,450.2,76.4z"/>
				<path id="Shape_7_" class="st0" d="M312.9,2.7h-30.7c-4.4-0.1-8.1,3.4-8.3,7.7c-0.1,2.2,0.8,4.2,2.3,5.8s3.6,2.4,5.7,2.4h31
					c4.4,0,8-3.6,8-8c0-2.1-0.9-4.2-2.4-5.6C317.1,3.5,315,2.6,312.9,2.7z"/>
				<path id="Shape_8_" class="st0" d="M342.3,78.1c-4.1,1.6-8.7-0.4-10.3-4.5l-11.3-24.3H275l-12.2,24.3c-1.9,3.6-6.2,5.2-10,3.7
					s-5.9-5.6-4.8-9.6l13.9-28c1.7-3.9,5.5-6.4,9.7-6.4H324c4.2,0,8.1,2.5,9.8,6.4l13,28C348.4,71.8,346.4,76.4,342.3,78.1z"/>
			</g>
		</g>
	</g>
</g>
</svg>
